<svg width="125" height="40" viewBox="0 0 125 40" fill="none" xmlns="http://www.w3.org/2000/svg">
<g clip-path="url(#clip0_1_34)">
<rect width="124.194" height="40" rx="2" fill="#C57A7A"/>
<path d="M-25.5877 5.69258L-25.6675 34.4436C-25.6675 37.6062 -18.4868 40.1938 -9.71033 40.1938H133.904C142.68 40.1938 149.861 37.6062 149.861 34.4436V5.69258C149.861 2.52997 142.68 -0.0576172 133.904 -0.0576172H-9.71033C-18.4868 -0.0576172 -25.5877 2.52997 -25.5877 5.69258ZM117.947 5.69258V34.4436H6.24681V5.69258H117.947Z" fill="#E30000"/>
</g>
<path d="M72.8821 26.4485L72.8851 26.4502C73.7751 26.9479 74.8186 27.1859 75.9967 27.1859C76.937 27.1859 77.7867 27.043 78.5363 26.7444L78.5379 26.7437C79.285 26.443 79.9103 26.0179 80.3994 25.4619C80.8935 24.9009 81.2197 24.2435 81.3776 23.4992L81.4973 22.9344L80.9212 22.8965L78.1521 22.7145L77.7835 22.6903L77.652 23.0355C77.5737 23.241 77.4641 23.4051 77.3253 23.5368C77.1851 23.6699 77.0127 23.7739 76.7996 23.8459C76.5814 23.9196 76.3317 23.9596 76.0459 23.9596C75.6154 23.9596 75.2713 23.8699 74.9948 23.711C74.7159 23.5508 74.4989 23.3246 74.3399 23.0199C74.2444 22.8312 74.1748 22.6133 74.1359 22.3622H80.9517H81.4517V21.8622V21.0431C81.4517 20.0829 81.3166 19.2226 81.033 18.4724C80.7531 17.7273 80.3552 17.0935 79.8329 16.5835C79.3221 16.0801 78.7222 15.7039 78.0387 15.456C77.3649 15.2053 76.643 15.0823 75.8772 15.0823C74.7429 15.0823 73.7289 15.333 72.8531 15.8523L72.8519 15.853C71.9866 16.3691 71.3158 17.0907 70.8434 18.0064C70.3698 18.9243 70.1411 19.9762 70.1411 21.1481C70.1411 22.3456 70.3689 23.4104 70.8439 24.3258L70.8444 24.3269C71.3192 25.2367 72.0004 25.9474 72.8821 26.4485ZM77.5745 19.5139H74.1978C74.2343 19.4057 74.2806 19.3027 74.3367 19.2043L74.3367 19.2043L74.3381 19.2018C74.4917 18.9286 74.7009 18.7146 74.9724 18.5539L74.9724 18.5539L74.9741 18.5528C75.2396 18.3941 75.552 18.3086 75.9264 18.3086C76.2869 18.3086 76.5793 18.387 76.8201 18.5275L76.82 18.5276L76.8273 18.5317C77.0805 18.6738 77.2746 18.8672 77.417 19.1189C77.4849 19.2391 77.5379 19.3702 77.5745 19.5139Z" fill="#E30000" stroke="white"/>
<path d="M61.2291 26.4155L61.232 26.4172C62.1192 26.937 63.1613 27.1859 64.3383 27.1859C65.3592 27.1859 66.2705 26.9998 67.0563 26.6084C67.8342 26.221 68.4552 25.6767 68.9054 24.9754C69.3599 24.2699 69.6077 23.4611 69.659 22.5628L69.6891 22.0343H69.1598H66.3344H65.9032L65.8398 22.4608C65.7927 22.7775 65.6959 23.0286 65.5615 23.2277L65.5604 23.2294C65.4285 23.4265 65.2655 23.5706 65.0683 23.6705L65.0683 23.6705L65.0652 23.6721C64.8723 23.7715 64.6454 23.8266 64.3735 23.8266C64.0061 23.8266 63.7057 23.7288 63.4516 23.5441C63.196 23.3583 62.9787 23.0762 62.8144 22.6658C62.6561 22.2589 62.5682 21.7414 62.5682 21.0991C62.5682 20.4671 62.6582 19.9579 62.82 19.5569C62.9845 19.1492 63.1998 18.8712 63.4506 18.6898L63.4516 18.6891C63.7057 18.5044 64.0061 18.4066 64.3735 18.4066C64.8131 18.4066 65.1225 18.5355 65.3515 18.7604L65.3514 18.7604L65.3565 18.7653C65.6065 19.0041 65.7739 19.3286 65.8398 19.7723L65.9031 20.1989H66.3344H69.1598H69.6858L69.6591 19.6735C69.613 18.7638 69.3621 17.9506 68.8936 17.2505C68.4286 16.5558 67.7981 16.0199 67.0152 15.6429L66.8028 16.0838L67.0152 15.6429C66.2278 15.2637 65.3264 15.0823 64.3243 15.0823C63.1597 15.0823 62.1263 15.3342 61.2441 15.8592C60.3695 16.3749 59.6932 17.0965 59.2201 18.0134L59.2196 18.0144C58.751 18.9274 58.5249 19.9744 58.5249 21.1411C58.5249 22.2942 58.7488 23.335 59.2111 24.2508L59.2111 24.2508L59.2121 24.2528C59.6805 25.1707 60.3547 25.8949 61.2291 26.4155Z" fill="#E30000" stroke="white"/>
<path d="M54.082 14.257L54.082 14.257C53.6737 13.8685 53.4558 13.3824 53.4558 12.8236C53.4558 12.2675 53.6754 11.7852 54.0847 11.4017L54.082 14.257ZM54.082 14.257L54.0876 14.2622M54.082 14.257L54.0876 14.2622M54.0876 14.2622C54.5013 14.6439 55.0052 14.8358 55.5723 14.8358C56.1395 14.8358 56.6426 14.6438 57.0527 14.2597L57.0529 14.2595M54.0876 14.2622L57.0529 14.2595M57.0529 14.2595C57.4665 13.8717 57.6888 13.385 57.6888 12.8236C57.6888 12.266 57.4658 11.7839 57.0528 11.4016C56.6437 11.0135 56.1406 10.8184 55.5723 10.8184C55.003 10.8184 54.4981 11.0142 54.0849 11.4015L57.0529 14.2595ZM53.5683 26.4756V26.9756H54.0683H57.0623H57.5623V26.4756V15.722V15.222H57.0623H54.0683H53.5683V15.722V26.4756Z" fill="#E30000" stroke="white"/>
<path d="M53.0078 15.8875L53.2414 15.2219H52.5361H49.3663H48.9908L48.8861 15.5824L47.0744 21.8195L45.2568 15.582L45.1519 15.2219H44.7768H41.614H40.9086L41.1422 15.8875L44.9164 26.6411L45.0338 26.9755H45.3882H48.7618H49.1162L49.2336 26.6411L53.0078 15.8875Z" fill="#E30000" stroke="white"/>
<path d="M32.738 26.4485L32.7411 26.4502C33.631 26.9479 34.6746 27.1859 35.8527 27.1859C36.7929 27.1859 37.6427 27.043 38.3922 26.7444L38.3939 26.7437C39.141 26.443 39.7663 26.0179 40.2553 25.4619C40.7494 24.9009 41.0756 24.2435 41.2335 23.4992L41.3533 22.9344L40.7772 22.8965L38.008 22.7145L37.6394 22.6903L37.508 23.0355C37.4297 23.241 37.3201 23.4051 37.1813 23.5368C37.041 23.6699 36.8686 23.7739 36.6556 23.8459C36.4373 23.9196 36.1877 23.9596 35.9019 23.9596C35.4713 23.9596 35.1272 23.8699 34.8508 23.711C34.5719 23.5508 34.3548 23.3246 34.1959 23.0198C34.1003 22.8312 34.0307 22.6133 33.9918 22.3622H40.8076H41.3076V21.8622V21.0431C41.3076 20.0829 41.1726 19.2226 40.889 18.4724C40.609 17.7273 40.2111 17.0935 39.6889 16.5835C39.178 16.0801 38.5782 15.7039 37.8947 15.456C37.2209 15.2053 36.499 15.0823 35.7332 15.0823C34.5988 15.0823 33.5848 15.333 32.709 15.8523L32.7079 15.853C31.8426 16.3691 31.1718 17.0907 30.6993 18.0064C30.2257 18.9243 29.9971 19.9762 29.9971 21.1481C29.9971 22.3456 30.2248 23.4104 30.6999 24.3258L30.7004 24.3269C31.1752 25.2367 31.8564 25.9474 32.738 26.4485ZM37.4304 19.5139H34.0538C34.0902 19.4057 34.1366 19.3027 34.1927 19.2043L34.1927 19.2043L34.1941 19.2018C34.3477 18.9286 34.5569 18.7146 34.8283 18.5539L34.8283 18.5539L34.83 18.5528C35.0956 18.3941 35.408 18.3086 35.7824 18.3086C36.1429 18.3086 36.4352 18.387 36.676 18.5275L36.676 18.5276L36.6833 18.5317C36.9365 18.6738 37.1306 18.8672 37.2729 19.1189C37.3409 19.2391 37.3939 19.3702 37.4304 19.5139Z" fill="#E30000" stroke="white"/>
<path d="M16.0896 26.4758V26.9758H16.5896H21.6922C23.2191 26.9758 24.5609 26.6759 25.6985 26.0538C26.8404 25.432 27.719 24.5359 28.3268 23.3759C28.9392 22.2159 29.2346 20.8488 29.2346 19.2928C29.2346 17.7411 28.9391 16.3783 28.3263 15.2226C27.7189 14.0685 26.8456 13.1774 25.7134 12.5602C24.5806 11.938 23.2481 11.6377 21.7343 11.6377H16.5896H16.0896V12.1377V26.4758ZM24.7739 21.7008L24.7732 21.7022C24.5074 22.2798 24.1192 22.6909 23.6057 22.9585C23.0811 23.2296 22.4084 23.3785 21.5657 23.3785H20.1329V15.2351H21.5727C22.4157 15.2351 23.0885 15.384 23.6132 15.6553C24.1208 15.9178 24.507 16.3258 24.7732 16.9044L24.7732 16.9044L24.7744 16.907C25.0471 17.4908 25.1983 18.2773 25.1983 19.2928C25.1983 20.3181 25.0469 21.112 24.7739 21.7008Z" fill="#E30000" stroke="white"/>
<path d="M89.9502 30.9115V9.4043H98.4685C100.099 9.4043 101.491 9.69484 102.643 10.2759C103.803 10.85 104.685 11.6656 105.29 12.7228C105.901 13.773 106.207 15.0086 106.207 16.4299C106.207 17.8581 105.898 19.0867 105.279 20.1159C104.661 21.1381 103.764 21.9222 102.591 22.4683C101.424 23.0143 100.011 23.2874 98.3526 23.2874H92.6491V19.6328H97.6146C98.4861 19.6328 99.21 19.5138 99.7864 19.2758C100.363 19.0377 100.791 18.6807 101.073 18.2046C101.361 17.7285 101.505 17.137 101.505 16.4299C101.505 15.7157 101.361 15.1137 101.073 14.6236C100.791 14.1335 100.359 13.7625 99.7758 13.5104C99.1995 13.2514 98.4721 13.1219 97.5935 13.1219H94.5151V30.9115H89.9502ZM101.61 21.1241L106.976 30.9115H101.937L96.6869 21.1241H101.61Z" fill="white"/>
<defs>
<clipPath id="clip0_1_34">
<rect width="124.194" height="40" rx="2" fill="white"/>
</clipPath>
</defs>
</svg>
