<svg width="300" height="97" viewBox="0 0 300 97" fill="none" xmlns="http://www.w3.org/2000/svg">
<g clip-path="url(#clip0_1_75)">
<rect width="300" height="97" fill="#C57A7A"/>
<path d="M-61.8092 13.8051L-62.002 83.5262C-62.002 91.1955 -44.6563 97.4704 -23.4561 97.4704H323.456C344.656 97.4704 362.002 91.1955 362.002 83.5262V13.8051C362.002 6.13574 344.656 -0.13916 323.456 -0.13916H-23.4561C-44.6563 -0.13916 -61.8092 6.13574 -61.8092 13.8051ZM284.91 13.8051V83.5262H15.0897V13.8051H284.91Z" fill="#E30000"/>
</g>
<path d="M176.405 63.5192L176.402 63.5175C174.393 62.371 172.843 60.7489 171.758 58.662L171.757 58.661C170.672 56.5618 170.14 54.0973 170.14 51.2838C170.14 48.536 170.673 46.1008 171.757 43.9926C172.839 41.8866 174.369 40.2369 176.342 39.0555L176.343 39.0548C178.333 37.8701 180.654 37.2867 183.288 37.2867C185.062 37.2867 186.723 37.5727 188.266 38.1495C189.825 38.7168 191.187 39.5754 192.348 40.7241C193.527 41.8793 194.435 43.3246 195.08 45.0472C195.728 46.7683 196.046 48.7656 196.046 51.0292V53.0155V53.5155H195.546H178.299C178.351 54.5344 178.571 55.4087 178.945 56.1492C179.39 57.0062 180.008 57.6578 180.804 58.1171C181.598 58.575 182.555 58.8142 183.695 58.8142C184.452 58.8142 185.133 58.7077 185.742 58.5011C186.346 58.2963 186.853 57.9929 187.272 57.5939C187.69 57.1964 188.012 56.7063 188.236 56.1149L188.367 55.7689L188.737 55.7933L195.426 56.2347L196.001 56.2727L195.882 56.837C195.525 58.5255 194.792 60.0074 193.681 61.2736L176.405 63.5192ZM176.405 63.5192C178.429 64.6557 180.826 65.2131 183.577 65.2131C185.777 65.2131 187.738 64.8772 189.45 64.1926L189.451 64.1919M176.405 63.5192L189.451 64.1919M189.451 64.1919C191.167 63.4987 192.581 62.5281 193.681 61.2738L189.451 64.1919ZM188.218 48.0335H178.341C178.432 47.3763 178.637 46.7721 178.952 46.2167L178.953 46.2142C179.386 45.442 179.98 44.8325 180.742 44.3793L180.744 44.3783C181.507 43.9205 182.389 43.6855 183.407 43.6855C184.384 43.6855 185.216 43.9001 185.921 44.3131L185.921 44.3131L185.929 44.3172C186.653 44.7251 187.215 45.2875 187.623 46.0115C187.957 46.6039 188.158 47.2752 188.218 48.0335Z" fill="#E30000" stroke="white"/>
<path d="M148.266 63.4445L148.269 63.4463C150.283 64.6315 152.672 65.2131 155.415 65.2131C157.796 65.2131 159.885 64.7774 161.666 63.887C163.439 63.0005 164.839 61.7643 165.853 60.1785C166.877 58.5818 167.443 56.7423 167.561 54.6737L167.591 54.1454H167.062H160.237H159.805L159.742 54.5721C159.615 55.4278 159.349 56.1413 158.956 56.7263L158.955 56.7279C158.571 57.3042 158.086 57.7374 157.497 58.0366L157.494 58.0382C156.917 58.3369 156.256 58.4916 155.5 58.4916C154.476 58.4916 153.602 58.2146 152.857 57.6709C152.111 57.1263 151.512 56.3222 151.076 55.2264C150.652 54.1343 150.431 52.7852 150.431 51.165C150.431 49.5684 150.657 48.2376 151.091 47.158C151.528 46.0717 152.122 45.2782 152.857 44.7446L152.857 44.7439C153.602 44.2003 154.476 43.9232 155.5 43.9232C156.715 43.9232 157.651 44.2879 158.358 44.9846L158.358 44.9847L158.363 44.9895C159.097 45.6938 159.563 46.6336 159.742 47.8426L159.805 48.2695H160.237H167.062H167.587L167.561 47.7442C167.455 45.6509 166.883 43.807 165.831 42.2291C164.782 40.6565 163.359 39.4387 161.575 38.5759C159.786 37.711 157.717 37.2867 155.381 37.2867C152.671 37.2867 150.304 37.8747 148.3 39.0717C146.305 40.2527 144.763 41.9023 143.68 44.0096L143.68 44.0105C142.608 46.1073 142.08 48.5308 142.08 51.2669C142.08 53.9693 142.602 56.38 143.661 58.4862L143.662 58.4882C144.734 60.5964 146.27 62.252 148.266 63.4445Z" fill="#E30000" stroke="white"/>
<path d="M131.127 34.0562L131.127 34.0562C130.275 33.2418 129.835 32.2472 129.835 31.0971C129.835 29.9563 130.276 28.9721 131.13 28.1694L131.127 34.0562ZM131.127 34.0562L131.133 34.0614M131.127 34.0562L131.133 34.0614M131.133 34.0614C131.997 34.8624 133.042 35.2642 134.24 35.2642C135.438 35.2642 136.478 34.8623 137.333 34.0589L137.333 34.0587M131.133 34.0614L137.333 34.0587M137.333 34.0587C138.197 33.2451 138.645 32.2497 138.645 31.0971C138.645 29.9549 138.197 28.9708 137.333 28.1693C136.479 27.3553 135.439 26.9469 134.24 26.9469C133.04 26.9469 131.994 27.356 131.13 28.1692L137.333 34.0587ZM130.107 64.2033V64.7033H130.607H137.839H138.339V64.2033V38.1258V37.6258H137.839H130.607H130.107V38.1258V64.2033Z" fill="#E30000" stroke="white"/>
<path d="M127.377 38.2904L127.61 37.6254H126.905H119.249H118.873L118.768 37.9865L113.713 55.4562L108.642 37.986L108.538 37.6254H108.162H100.522H99.8179L100.05 38.2904L109.167 64.3679L109.284 64.7029H109.639H117.788H118.143L118.26 64.3679L127.377 38.2904Z" fill="#E30000" stroke="white"/>
<path d="M79.4334 63.5192L79.4303 63.5175C77.421 62.371 75.8711 60.7489 74.7864 58.662L74.7858 58.661C73.7009 56.5618 73.1681 54.0973 73.1681 51.2838C73.1681 48.536 73.7018 46.1008 74.7853 43.9926C75.8678 41.8866 77.3973 40.2369 79.3703 39.0555L79.3715 39.0548C81.3617 37.8701 83.6826 37.2867 86.3164 37.2867C88.0906 37.2867 89.7512 37.5727 91.2941 38.1495C92.8533 38.7168 94.2159 39.5754 95.3767 40.7241C96.5555 41.8793 97.4639 43.3246 98.1085 45.0472C98.7568 46.7683 99.0742 48.7656 99.0742 51.0292V53.0155V53.5155H98.5742H81.3277C81.3799 54.5343 81.5995 55.4087 81.9737 56.1492C82.4181 57.0061 83.0367 57.6578 83.8328 58.1171C84.6265 58.575 85.5839 58.8142 86.7238 58.8142C87.4803 58.8142 88.161 58.7077 88.7704 58.5011C89.3746 58.2963 89.8819 57.9929 90.3008 57.5939C90.7183 57.1964 91.0404 56.7063 91.2647 56.1149L91.3959 55.7689L91.7651 55.7933L98.4543 56.2347L99.0298 56.2727L98.9106 56.837C98.5538 58.5255 97.82 60.0074 96.7092 61.2736L79.4334 63.5192ZM79.4334 63.5192C81.4577 64.6557 83.8546 65.2131 86.605 65.2131C88.8057 65.2131 90.7666 64.8772 92.4782 64.1926L92.4798 64.1919M79.4334 63.5192L92.4798 64.1919M92.4798 64.1919C94.1953 63.4987 95.6099 62.5281 96.709 61.2738L92.4798 64.1919ZM91.2466 48.0335H81.3698C81.4609 47.3763 81.6652 46.7721 81.9805 46.2167L81.9819 46.2142C82.4143 45.442 83.0084 44.8325 83.7706 44.3793L83.7723 44.3783C84.5352 43.9205 85.4178 43.6855 86.4352 43.6855C87.4122 43.6855 88.2449 43.9001 88.9498 44.3131L88.9498 44.3131L88.9571 44.3172C89.6811 44.7251 90.2435 45.2875 90.6514 46.0115C90.9852 46.6039 91.1861 47.2752 91.2466 48.0335Z" fill="#E30000" stroke="white"/>
<path d="M39.5739 64.7037V64.2037V29.4337V28.9337H40.0739H52.5014C56.065 28.9337 59.1622 29.6432 61.7743 31.0837C64.3857 32.5126 66.3963 34.5712 67.7992 37.2482C69.2144 39.9267 69.911 43.1117 69.911 46.7847C69.911 50.4688 69.2144 53.6648 67.7997 56.3544C66.3964 59.0436 64.3741 61.1136 61.7402 62.5537L39.5739 64.7037ZM39.5739 64.7037H40.0739M39.5739 64.7037H40.0739M40.0739 64.7037H52.3996M40.0739 64.7037H52.3996M52.3996 64.7037C55.9962 64.7037 59.1158 63.9945 61.7393 62.5542L52.3996 64.7037ZM60.4854 52.9246L60.4847 52.926C59.7809 54.4616 58.7357 55.5808 57.3468 56.3071C55.9535 57.0301 54.2099 57.405 52.094 57.405H47.9251V36.2323H52.1109C54.2272 36.2323 55.9709 36.6073 57.3643 37.3306C58.7407 38.045 59.7805 39.1579 60.4847 40.6944L60.4859 40.697C61.2033 42.2387 61.5767 44.2593 61.5767 46.7847C61.5767 49.3333 61.2031 51.3713 60.4854 52.9246Z" fill="#E30000" stroke="white"/>
<path d="M217.282 74.9602V22.8052H237.859C241.798 22.8052 245.159 23.5097 247.943 24.9189C250.745 26.311 252.875 28.2889 254.335 30.8525C255.813 33.3992 256.551 36.3957 256.551 39.8421C256.551 43.3056 255.804 46.2851 254.31 48.7808C252.816 51.2595 250.651 53.161 247.816 54.4853C244.998 55.8095 241.585 56.4716 237.579 56.4716H223.801V47.6094H235.796C237.901 47.6094 239.65 47.3207 241.042 46.7435C242.434 46.1663 243.47 45.3004 244.149 44.146C244.845 42.9915 245.193 41.5569 245.193 39.8421C245.193 38.1104 244.845 36.6504 244.149 35.4619C243.47 34.2735 242.426 33.3737 241.017 32.7625C239.624 32.1343 237.867 31.8203 235.745 31.8203H228.309V74.9602H217.282ZM245.448 51.2256L258.41 74.9602H246.237L233.555 51.2256H245.448Z" fill="white"/>
<defs>
<clipPath id="clip0_1_75">
<rect width="300" height="97" fill="white"/>
</clipPath>
</defs>
</svg>
