<svg width="18" height="18" viewBox="0 0 18 18" fill="none" xmlns="http://www.w3.org/2000/svg">
<path d="M12.5 11.5174H11.71L11.43 11.2519C12.41 10.1309 13 8.67552 13 7.09231C13 3.56203 10.09 0.700439 6.5 0.700439C2.91 0.700439 0 3.56203 0 7.09231C0 10.6226 2.91 13.4842 6.5 13.4842C8.11 13.4842 9.59 12.904 10.73 11.9403L11 12.2156V12.9925L16 17.8995L17.49 16.4343L12.5 11.5174ZM6.5 11.5174C4.01 11.5174 2 9.54088 2 7.09231C2 4.64373 4.01 2.66717 6.5 2.66717C8.99 2.66717 11 4.64373 11 7.09231C11 9.54088 8.99 11.5174 6.5 11.5174Z" fill="black"/>
</svg>
