<svg width="358" height="115" viewBox="0 0 358 115" fill="none" xmlns="http://www.w3.org/2000/svg">
<g clip-path="url(#clip0_70_46)">
<rect width="357.057" height="115" rx="2" fill="#C57A7A"/>
<path d="M-73.5647 16.3663L-73.7941 99.0253C-73.7941 108.118 -53.1495 115.557 -27.9173 115.557H384.974C410.206 115.557 430.851 108.118 430.851 99.0253V16.3663C430.851 7.27379 410.206 -0.165527 384.974 -0.165527H-27.9173C-53.1495 -0.165527 -73.5647 7.27379 -73.5647 16.3663ZM339.097 16.3663V99.0253H17.9595V16.3663H339.097Z" fill="#E30000"/>
</g>
<path d="M209.999 75.224L210.002 75.2257C212.394 76.5635 215.23 77.2216 218.49 77.2216C221.1 77.2216 223.421 76.8249 225.445 76.0187L225.446 76.018C227.476 75.201 229.147 74.0584 230.444 72.5837C231.755 71.0949 232.622 69.3523 233.043 67.3652L233.163 66.8004L232.587 66.7625L224.626 66.2392L224.257 66.215L224.125 66.5602C223.854 67.2733 223.463 67.8662 222.955 68.3479C222.446 68.8311 221.83 69.1977 221.099 69.4446C220.362 69.6933 219.541 69.8209 218.632 69.8209C217.261 69.8209 216.104 69.5343 215.143 68.9816C214.179 68.4276 213.43 67.6413 212.893 66.6101C212.429 65.6951 212.163 64.6134 212.11 63.3534H232.736H233.236V62.8534V60.4984C233.236 57.8229 232.859 55.4661 232.092 53.4381C231.329 51.4067 230.255 49.7053 228.863 48.3465C227.491 46.9942 225.881 45.9835 224.038 45.3155C222.213 44.636 220.248 44.2986 218.147 44.2986C215.027 44.2986 212.282 44.9869 209.93 46.3813L209.929 46.382C207.597 47.7732 205.788 49.7157 204.508 52.1978C203.226 54.6822 202.593 57.5544 202.593 60.8004C202.593 64.1245 203.225 67.0313 204.508 69.5045L204.509 69.5056C205.792 71.9644 207.624 73.874 209.999 75.224ZM224.117 57.0396H212.152C212.254 56.209 212.505 55.4467 212.903 54.7478L212.905 54.7453C213.427 53.8157 214.146 53.0811 215.068 52.5353L215.069 52.5342C215.994 51.9817 217.062 51.6993 218.288 51.6993C219.466 51.6993 220.474 51.9571 221.33 52.4564L221.33 52.4565L221.337 52.4606C222.214 52.9527 222.896 53.6319 223.39 54.5049C223.809 55.2461 224.054 56.088 224.117 57.0396Z" fill="#E30000" stroke="white"/>
<path d="M176.513 75.1385L176.516 75.1402C178.896 76.5351 181.722 77.2216 184.972 77.2216C187.794 77.2216 190.265 76.7073 192.369 75.6596C194.464 74.6158 196.118 73.1614 197.315 71.2962C198.525 69.418 199.194 67.2527 199.333 64.8142L199.363 64.2857H198.834H190.711H190.28L190.216 64.7121C190.064 65.7377 189.743 66.597 189.266 67.3037L189.265 67.3054C188.799 68.0014 188.21 68.5261 187.495 68.8886L187.491 68.8902C186.789 69.2521 185.987 69.4385 185.073 69.4385C183.836 69.4385 182.776 69.1044 181.872 68.4471C180.966 67.7888 180.244 66.8198 179.719 65.5079C179.209 64.1996 178.946 62.5882 178.946 60.6595C178.946 58.7585 179.216 57.1686 179.738 55.8749C180.263 54.5746 180.979 53.6183 181.871 52.9731L181.872 52.9724C182.776 52.3151 183.836 51.9811 185.073 51.9811C186.541 51.9811 187.681 52.4206 188.542 53.2669L188.542 53.2669L188.547 53.2717C189.439 54.1232 190.001 55.2571 190.216 56.7073L190.28 57.1339H190.711H198.834H199.36L199.333 56.6085C199.208 54.141 198.531 51.9713 197.29 50.1161C196.051 48.2662 194.371 46.8333 192.262 45.8174C190.148 44.7994 187.7 44.2986 184.932 44.2986C181.72 44.2986 178.921 44.9925 176.554 46.4013C174.195 47.7922 172.372 49.7346 171.091 52.218L171.09 52.2189C169.822 54.6897 169.196 57.5482 169.196 60.7802C169.196 63.9724 169.816 66.816 171.069 69.2983L171.07 69.3003C172.337 71.7846 174.154 73.734 176.513 75.1385Z" fill="#E30000" stroke="white"/>
<path d="M156.132 40.3094L156.132 40.3094C155.135 39.3608 154.623 38.2053 154.623 36.8676C154.623 35.5413 155.137 34.3983 156.135 33.4635L156.132 40.3094ZM156.132 40.3094L156.137 40.3146M156.132 40.3094L156.137 40.3146M156.137 40.3146C157.148 41.2477 158.368 41.7152 159.77 41.7152C161.172 41.7152 162.387 41.2475 163.385 40.3121L163.386 40.3119M156.137 40.3146L163.386 40.3119M163.386 40.3119C164.397 39.3641 164.918 38.2078 164.918 36.8676C164.918 35.5399 164.396 34.397 163.386 33.4634C162.388 32.5152 161.173 32.04 159.77 32.04C158.366 32.04 157.145 32.5159 156.135 33.4633L163.386 40.3119ZM154.946 76.1172V76.6172H155.446H164.054H164.554V76.1172V45.2006V44.7006H164.054H155.446H154.946V45.2006V76.1172Z" fill="#E30000" stroke="white"/>
<path d="M151.513 45.3658L151.747 44.7002H151.041H141.928H141.553L141.448 45.0607L135.34 66.0867L129.213 45.0603L129.108 44.7002H128.733H119.64H118.935L119.169 45.3658L130.019 76.2824L130.137 76.6168H130.491H140.19H140.545L140.662 76.2824L151.513 45.3658Z" fill="#E30000" stroke="white"/>
<path d="M94.585 75.224L94.588 75.2257C96.9803 76.5635 99.8161 77.2216 103.076 77.2216C105.686 77.2216 108.007 76.8249 110.031 76.0187L110.032 76.018C112.062 75.201 113.733 74.0584 115.03 72.5837C116.341 71.0949 117.208 69.3523 117.629 67.3652L117.749 66.8004L117.173 66.7625L109.211 66.2392L108.843 66.215L108.711 66.5602C108.44 67.2733 108.049 67.8662 107.541 68.3479C107.032 68.8311 106.416 69.1977 105.685 69.4446C104.948 69.6933 104.127 69.8209 103.218 69.8209C101.847 69.8209 100.69 69.5343 99.7287 68.9816C98.7645 68.4276 98.016 67.6413 97.4792 66.6101C97.0149 65.6951 96.7491 64.6134 96.6959 63.3534H117.322H117.822V62.8534V60.4984C117.822 57.8232 117.445 55.4666 116.679 53.4388C115.915 51.4071 114.841 49.7055 113.449 48.3465C112.077 46.9942 110.467 45.9835 108.624 45.3155C106.799 44.636 104.834 44.2986 102.733 44.2986C99.6129 44.2986 96.8682 44.9869 94.5164 46.3813L94.5153 46.382C92.1828 47.7732 90.3743 49.7157 89.0936 52.1978C87.8118 54.6822 87.179 57.5544 87.179 60.8004C87.179 64.1245 87.8109 67.0313 89.0941 69.5045L89.0947 69.5056C90.3777 71.9644 92.2098 73.874 94.585 75.224ZM108.703 57.0396H96.7375C96.8395 56.209 97.091 55.4467 97.4892 54.7478L97.4906 54.7453C98.0132 53.8157 98.732 53.0811 99.6535 52.5353L99.6552 52.5342C100.58 51.9817 101.648 51.6993 102.874 51.6993C104.052 51.6993 105.06 51.9571 105.916 52.4564L105.916 52.4565L105.923 52.4606C106.8 52.9527 107.482 53.6319 107.976 54.5049C108.395 55.2461 108.64 56.088 108.703 57.0396Z" fill="#E30000" stroke="white"/>
<path d="M47.1951 76.1177V76.6177H47.6951H62.365C66.633 76.6177 70.3292 75.7795 73.4348 74.0811C76.5534 72.3828 78.9476 69.942 80.6096 66.7691C82.285 63.5963 83.1119 59.8227 83.1119 55.4663C83.1119 51.1227 82.2847 47.3617 80.6086 44.2019C78.947 41.044 76.5671 38.6173 73.4759 36.9325C70.384 35.234 66.7146 34.3955 62.4862 34.3955H47.6951H47.1951V34.8955V76.1177ZM72.0753 62.7838L72.0746 62.7852C71.229 64.6229 69.9711 65.966 68.2981 66.8374C66.6226 67.7038 64.531 68.1502 62.0013 68.1502H56.9445V42.863H62.0215C64.5513 42.863 66.643 43.3095 68.3185 44.1758C69.977 45.0334 71.2286 46.3691 72.0746 48.2078L72.0758 48.2104C72.9371 50.0544 73.3827 52.4643 73.3827 55.4663C73.3827 58.4957 72.937 60.9262 72.0753 62.7838Z" fill="#E30000" stroke="white"/>
<path d="M258.607 88.8704V27.0371H283.097C287.785 27.0371 291.786 27.8724 295.1 29.543C298.434 31.1935 300.97 33.5385 302.708 36.5778C304.466 39.597 305.345 43.1496 305.345 47.2356C305.345 51.3417 304.455 54.8742 302.677 57.833C300.899 60.7717 298.323 63.026 294.948 64.596C291.594 66.166 287.533 66.951 282.764 66.951H266.366V56.4441H280.642C283.148 56.4441 285.229 56.102 286.886 55.4176C288.543 54.7333 289.775 53.7067 290.584 52.338C291.412 50.9693 291.826 49.2685 291.826 47.2356C291.826 45.1825 291.412 43.4515 290.584 42.0426C289.775 40.6336 288.533 39.5668 286.856 38.8422C285.199 38.0975 283.107 37.7251 280.581 37.7251H271.731V88.8704H258.607ZM292.129 60.7314L307.557 88.8704H293.069L277.975 60.7314H292.129Z" fill="white"/>
<defs>
<clipPath id="clip0_70_46">
<rect width="357.057" height="115" rx="2" fill="white"/>
</clipPath>
</defs>
</svg>
