<svg width="300" height="97" viewBox="0 0 300 97" fill="none" xmlns="http://www.w3.org/2000/svg">
<g clip-path="url(#clip0_20_1794)">
<rect width="300" height="97" fill="#C57A7A"/>
<path d="M-61.8092 13.8051L-62.002 83.5262C-62.002 91.1955 -44.6563 97.4704 -23.4561 97.4704H323.456C344.656 97.4704 362.002 91.1955 362.002 83.5262V13.8051C362.002 6.13574 344.656 -0.13916 323.456 -0.13916H-23.4561C-44.6563 -0.13916 -61.8092 6.13574 -61.8092 13.8051ZM284.91 13.8051V83.5262H15.0897V13.8051H284.91Z" fill="#E30000"/>
</g>
<path d="M176.405 63.5193L176.402 63.5176C174.393 62.3711 172.843 60.749 171.758 58.662L171.757 58.661C170.672 56.5618 170.14 54.0973 170.14 51.2839C170.14 48.536 170.673 46.1009 171.757 43.9927C172.839 41.8866 174.369 40.237 176.342 39.0555L176.343 39.0548C178.333 37.8702 180.654 37.2867 183.288 37.2867C185.062 37.2867 186.723 37.5728 188.266 38.1495C189.825 38.7169 191.187 39.5755 192.348 40.7241C193.527 41.8794 194.435 43.3246 195.08 45.0473C195.728 46.7683 196.046 48.7657 196.046 51.0292V53.0156V53.5156H195.546H178.299C178.351 54.5344 178.571 55.4088 178.945 56.1493C179.39 57.0062 180.008 57.6579 180.804 58.1172C181.598 58.5751 182.555 58.8143 183.695 58.8143C184.452 58.8143 185.133 58.7078 185.742 58.5012C186.346 58.2964 186.853 57.993 187.272 57.594C187.69 57.1964 188.012 56.7064 188.236 56.1149L188.367 55.769L188.737 55.7934L195.426 56.2348L196.001 56.2727L195.882 56.837C195.525 58.5255 194.792 60.0075 193.681 61.2736L176.405 63.5193ZM176.405 63.5193C178.429 64.6557 180.826 65.2131 183.577 65.2131C185.777 65.2131 187.738 64.8773 189.45 64.1927L189.451 64.192M176.405 63.5193L189.451 64.192M189.451 64.192C191.167 63.4987 192.581 62.5282 193.681 61.2739L189.451 64.192ZM188.218 48.0335H178.341C178.432 47.3764 178.637 46.7722 178.952 46.2167L178.953 46.2142C179.386 45.4421 179.98 44.8326 180.742 44.3794L180.744 44.3783C181.507 43.9206 182.389 43.6856 183.407 43.6856C184.384 43.6856 185.216 43.9002 185.921 44.3131L185.921 44.3132L185.929 44.3173C186.653 44.7252 187.215 45.2876 187.623 46.0116C187.957 46.604 188.158 47.2753 188.218 48.0335Z" fill="#E30000" stroke="white"/>
<path d="M148.265 63.4446L148.268 63.4463C150.283 64.6315 152.672 65.2131 155.415 65.2131C157.796 65.2131 159.885 64.7775 161.665 63.887C163.438 63.0005 164.839 61.7644 165.852 60.1785C166.877 58.5819 167.443 56.7424 167.561 54.6738L167.591 54.1454H167.061H160.236H159.805L159.742 54.5722C159.615 55.4279 159.349 56.1414 158.956 56.7263L158.955 56.728C158.57 57.3043 158.086 57.7374 157.497 58.0367L157.494 58.0383C156.917 58.3369 156.256 58.4917 155.5 58.4917C154.476 58.4917 153.602 58.2146 152.857 57.671C152.111 57.1264 151.512 56.3222 151.076 55.2265C150.652 54.1343 150.431 52.7853 150.431 51.165C150.431 49.5685 150.657 48.2377 151.091 47.1581C151.528 46.0717 152.121 45.2783 152.856 44.7447L152.857 44.744C153.602 44.2004 154.476 43.9233 155.5 43.9233C156.715 43.9233 157.651 44.2879 158.357 44.9847L158.357 44.9847L158.362 44.9896C159.097 45.6939 159.563 46.6336 159.742 47.8427L159.805 48.2695H160.236H167.061H167.587L167.561 47.7443C167.455 45.651 166.883 43.8071 165.831 42.2291C164.782 40.6565 163.359 39.4387 161.575 38.5759C159.786 37.711 157.716 37.2867 155.381 37.2867C152.671 37.2867 150.304 37.8747 148.3 39.0717C146.305 40.2528 144.763 41.9024 143.68 44.0096L143.68 44.0106C142.608 46.1074 142.08 48.5309 142.08 51.2669C142.08 53.9694 142.602 56.3801 143.661 58.4863L143.662 58.4882C144.734 60.5965 146.27 62.2521 148.265 63.4446Z" fill="#E30000" stroke="white"/>
<path d="M131.127 34.0562L131.127 34.0562C130.275 33.2418 129.835 32.2472 129.835 31.0971C129.835 29.9563 130.276 28.9721 131.13 28.1694L131.127 34.0562ZM131.127 34.0562L131.133 34.0614M131.127 34.0562L131.133 34.0614M131.133 34.0614C131.997 34.8624 133.042 35.2642 134.24 35.2642C135.438 35.2642 136.478 34.8623 137.333 34.0589L137.333 34.0587M131.133 34.0614L137.333 34.0587M137.333 34.0587C138.197 33.2451 138.645 32.2497 138.645 31.0971C138.645 29.9549 138.197 28.9708 137.333 28.1693C136.479 27.3553 135.439 26.9469 134.24 26.9469C133.04 26.9469 131.994 27.356 131.13 28.1692L137.333 34.0587ZM130.107 64.2033V64.7033H130.607H137.839H138.339V64.2033V38.1258V37.6258H137.839H130.607H130.107V38.1258V64.2033Z" fill="#E30000" stroke="white"/>
<path d="M127.377 38.2905L127.61 37.6255H126.905H119.248H118.873L118.768 37.9865L113.713 55.4562L108.642 37.9861L108.538 37.6255H108.162H100.522H99.8177L100.05 38.2905L109.167 64.368L109.284 64.703H109.639H117.788H118.143L118.26 64.368L127.377 38.2905Z" fill="#E30000" stroke="white"/>
<path d="M79.4333 63.5193L79.4302 63.5176C77.4209 62.3711 75.871 60.749 74.7863 58.662L74.7857 58.661C73.7007 56.5618 73.168 54.0973 73.168 51.2839C73.168 48.536 73.7016 46.1009 74.7852 43.9927C75.8676 41.8866 77.3971 40.237 79.3702 39.0555L79.3713 39.0548C81.3616 37.8702 83.6825 37.2867 86.3162 37.2867C88.0904 37.2867 89.7511 37.5728 91.2939 38.1495C92.8532 38.7169 94.2158 39.5755 95.3766 40.7241C96.5554 41.8794 97.4638 43.3246 98.1084 45.0473C98.7566 46.7683 99.074 48.7657 99.074 51.0292V53.0156V53.5156H98.574H81.3276C81.3797 54.5344 81.5993 55.4087 81.9736 56.1492C82.418 57.0062 83.0366 57.6579 83.8327 58.1172C84.6264 58.5751 85.5838 58.8143 86.7237 58.8143C87.4802 58.8143 88.1608 58.7078 88.7703 58.5012C89.3744 58.2964 89.8817 57.993 90.3007 57.594C90.7181 57.1964 91.0402 56.7064 91.2646 56.1149L91.3958 55.769L91.765 55.7934L98.4542 56.2348L99.0296 56.2727L98.9104 56.837C98.5537 58.5255 97.8198 60.0075 96.7091 61.2736L79.4333 63.5193ZM79.4333 63.5193C81.4576 64.6557 83.8545 65.2131 86.6049 65.2131C88.8056 65.2131 90.7665 64.8773 92.478 64.1927L92.4797 64.192M79.4333 63.5193L92.4797 64.192M92.4797 64.192C94.1952 63.4987 95.6098 62.5282 96.7088 61.2739L92.4797 64.192ZM91.2465 48.0335H81.3697C81.4607 47.3764 81.6651 46.7722 81.9804 46.2167L81.9818 46.2142C82.4142 45.4421 83.0083 44.8326 83.7705 44.3794L83.7722 44.3783C84.5351 43.9206 85.4177 43.6856 86.4351 43.6856C87.4121 43.6856 88.2447 43.9002 88.9497 44.3131L88.9497 44.3132L88.957 44.3173C89.681 44.7252 90.2434 45.2876 90.6513 46.0116C90.985 46.604 91.186 47.2753 91.2465 48.0335Z" fill="#E30000" stroke="white"/>
<path d="M39.5737 64.7037V64.2037V29.4337V28.9337H40.0737H52.5013C56.0649 28.9337 59.1621 29.6432 61.7742 31.0838C64.3856 32.5126 66.3961 34.5712 67.7991 37.2482C69.2142 39.9268 69.9109 43.1117 69.9109 46.7848C69.9109 50.4689 69.2143 53.6648 67.7996 56.3544C66.3963 59.0437 64.374 61.1137 61.74 62.5538L39.5737 64.7037ZM39.5737 64.7037H40.0737M39.5737 64.7037H40.0737M40.0737 64.7037H52.3994M40.0737 64.7037H52.3994M52.3994 64.7037C55.9961 64.7037 59.1157 63.9946 61.7392 62.5542L52.3994 64.7037ZM60.4852 52.9246L60.4846 52.926C59.7808 54.4617 58.7356 55.5809 57.3466 56.3071C55.9534 57.0302 54.2098 57.4051 52.0938 57.4051H47.925V36.2324H52.1108C54.2271 36.2324 55.9708 36.6074 57.3642 37.3306C58.7406 38.0451 59.7804 39.1579 60.4846 40.6944L60.4858 40.697C61.2031 42.2388 61.5766 44.2593 61.5766 46.7848C61.5766 49.3334 61.203 51.3713 60.4852 52.9246Z" fill="#E30000" stroke="white"/>
<path d="M217.282 74.9602V22.8052H237.859C241.798 22.8052 245.159 23.5097 247.943 24.9189C250.745 26.311 252.875 28.2889 254.335 30.8525C255.813 33.3992 256.551 36.3957 256.551 39.8421C256.551 43.3056 255.804 46.2851 254.31 48.7808C252.816 51.2595 250.651 53.161 247.816 54.4853C244.998 55.8095 241.585 56.4716 237.579 56.4716H223.801V47.6094H235.796C237.901 47.6094 239.65 47.3207 241.042 46.7435C242.434 46.1663 243.47 45.3004 244.149 44.146C244.845 42.9915 245.193 41.5569 245.193 39.8421C245.193 38.1104 244.845 36.6504 244.149 35.4619C243.47 34.2735 242.426 33.3737 241.017 32.7625C239.624 32.1343 237.867 31.8203 235.745 31.8203H228.309V74.9602H217.282ZM245.448 51.2256L258.41 74.9602H246.237L233.555 51.2256H245.448Z" fill="white"/>
<defs>
<clipPath id="clip0_20_1794">
<rect width="300" height="97" fill="white"/>
</clipPath>
</defs>
</svg>
