<svg width="35" height="34" viewBox="0 0 35 34" fill="none" xmlns="http://www.w3.org/2000/svg">
<g clip-path="url(#clip0_73_173)">
<path d="M9.65417 15.2858C11.7542 19.295 15.1375 22.5675 19.2646 24.6217L22.4729 21.505C22.8667 21.1225 23.45 20.995 23.9604 21.165C25.5938 21.6892 27.3583 21.9725 29.1667 21.9725C29.9688 21.9725 30.625 22.61 30.625 23.3892V28.3333C30.625 29.1125 29.9688 29.75 29.1667 29.75C15.4729 29.75 4.375 18.9692 4.375 5.66667C4.375 4.8875 5.03125 4.25 5.83333 4.25H10.9375C11.7396 4.25 12.3958 4.8875 12.3958 5.66667C12.3958 7.4375 12.6875 9.1375 13.2271 10.7242C13.3875 11.22 13.2708 11.7725 12.8625 12.1692L9.65417 15.2858Z" fill="white"/>
</g>
<defs>
<clipPath id="clip0_73_173">
<rect width="35" height="34" fill="white"/>
</clipPath>
</defs>
</svg>
