<svg width="80" height="80" viewBox="0 0 80 80" fill="none" xmlns="http://www.w3.org/2000/svg">
<path d="M26.3333 69.5833C22.4444 67.25 19.3055 64.0689 16.9167 60.04C14.5278 56.0133 13.3333 51.5555 13.3333 46.6667C13.3333 40.3889 15.1944 34.3611 18.9167 28.5833C22.6389 22.8055 27.75 17.75 34.25 13.4167C35.4722 12.5833 36.7367 12.5411 38.0433 13.29C39.3478 14.0411 40 15.1667 40 16.6667V21C40 22.8889 40.6533 24.4722 41.96 25.75C43.2644 27.0278 44.8611 27.6667 46.75 27.6667C47.6944 27.6667 48.5978 27.4589 49.46 27.0433C50.32 26.6255 51.0833 26.0278 51.75 25.25C52.1944 24.6944 52.7644 24.3467 53.46 24.2067C54.1533 24.0689 54.8055 24.2222 55.4167 24.6667C58.9167 27.1667 61.6667 30.3611 63.6667 34.25C65.6667 38.1389 66.6667 42.2778 66.6667 46.6667C66.6667 51.5555 65.4722 56.0133 63.0833 60.04C60.6944 64.0689 57.5555 67.25 53.6667 69.5833C54.6111 68.25 55.3478 66.7911 55.8767 65.2067C56.4033 63.6244 56.6667 61.9444 56.6667 60.1667C56.6667 57.9444 56.25 55.8478 55.4167 53.8767C54.5833 51.9033 53.3889 50.1389 51.8333 48.5833L40 37L28.25 48.5833C26.6389 50.1944 25.4167 51.9722 24.5833 53.9167C23.75 55.8611 23.3333 57.9444 23.3333 60.1667C23.3333 61.9444 23.5978 63.6244 24.1267 65.2067C24.6533 66.7911 25.3889 68.25 26.3333 69.5833ZM40 70C37.2222 70 34.8611 69.0411 32.9167 67.1233C30.9722 65.2078 30 62.8889 30 60.1667C30 58.8889 30.25 57.6533 30.75 56.46C31.25 55.2644 31.9722 54.1944 32.9167 53.25L40 46.3333L47.0833 53.25C48.0278 54.1944 48.75 55.25 49.25 56.4167C49.75 57.5833 50 58.8333 50 60.1667C50 62.8889 49.0278 65.2078 47.0833 67.1233C45.1389 69.0411 42.7778 70 40 70Z" fill="white"/>
</svg>
