<svg width="18" height="18" viewBox="0 0 18 18" fill="none" xmlns="http://www.w3.org/2000/svg">
<path d="M12.5 10.9905H11.71L11.43 10.7206C12.41 9.58099 13 8.10147 13 6.492C13 2.90318 10.09 -0.00585938 6.5 -0.00585938C2.91 -0.00585938 0 2.90318 0 6.492C0 10.0808 2.91 12.9899 6.5 12.9899C8.11 12.9899 9.59 12.4001 10.73 11.4204L11 11.7003V12.49L16 17.4784L17.49 15.9889L12.5 10.9905ZM6.5 10.9905C4.01 10.9905 2 8.98118 2 6.492C2 4.00282 4.01 1.99348 6.5 1.99348C8.99 1.99348 11 4.00282 11 6.492C11 8.98118 8.99 10.9905 6.5 10.9905Z" fill="black"/>
</svg>
