<svg width="18" height="18" viewBox="0 0 18 18" fill="none" xmlns="http://www.w3.org/2000/svg">
<path d="M12.5 11.5176H11.71L11.43 11.2521C12.41 10.131 13 8.67564 13 7.09242C13 3.56215 10.09 0.700556 6.5 0.700556C2.91 0.700556 0 3.56215 0 7.09242C0 10.6227 2.91 13.4843 6.5 13.4843C8.11 13.4843 9.59 12.9041 10.73 11.9404L11 12.2157V12.9926L16 17.8996L17.49 16.4344L12.5 11.5176ZM6.5 11.5176C4.01 11.5176 2 9.541 2 7.09242C2 4.64385 4.01 2.66728 6.5 2.66728C8.99 2.66728 11 4.64385 11 7.09242C11 9.541 8.99 11.5176 6.5 11.5176Z" fill="black"/>
</svg>
