<svg width="18" height="19" viewBox="0 0 18 19" fill="none" xmlns="http://www.w3.org/2000/svg">
<path d="M12.5 11.9233H11.71L11.43 11.654C12.41 10.517 13 9.04091 13 7.43518C13 3.85468 10.09 0.952393 6.5 0.952393C2.91 0.952393 0 3.85468 0 7.43518C0 11.0157 2.91 13.918 6.5 13.918C8.11 13.918 9.59 13.3295 10.73 12.3521L11 12.6314V13.4193L16 18.3961L17.49 16.91L12.5 11.9233ZM6.5 11.9233C4.01 11.9233 2 9.91858 2 7.43518C2 4.95177 4.01 2.94709 6.5 2.94709C8.99 2.94709 11 4.95177 11 7.43518C11 9.91858 8.99 11.9233 6.5 11.9233Z" fill="black"/>
</svg>
